<mxfile host="Electron" modified="2024-11-06T14:38:41.377Z" agent="Mozilla/5.0 (Windows NT 10.0; Win64; x64) AppleWebKit/537.36 (KHTML, like Gecko) draw.io/22.0.3 Chrome/114.0.5735.289 Electron/25.8.4 Safari/537.36" etag="xmKq_OHgu85LmyEKUoUa" version="22.0.3" type="device">
  <diagram name="第 1 页" id="CDgv0ayaT4mq9bY0akKq">
    <mxGraphModel dx="1590" dy="1095" grid="1" gridSize="10" guides="1" tooltips="1" connect="1" arrows="1" fold="1" page="1" pageScale="1" pageWidth="827" pageHeight="1169" math="0" shadow="0">
      <root>
        <mxCell id="0" />
        <mxCell id="1" parent="0" />
        <mxCell id="I0Lb3Z7_06NX-Wviw64G-1" value="&lt;b&gt;User&lt;/b&gt;" style="shape=umlActor;verticalLabelPosition=bottom;verticalAlign=top;html=1;outlineConnect=0;" parent="1" vertex="1">
          <mxGeometry x="60" y="330" width="30" height="60" as="geometry" />
        </mxCell>
        <mxCell id="I0Lb3Z7_06NX-Wviw64G-10" value="" style="ellipse;shape=umlEntity;whiteSpace=wrap;html=1;aspect=fixed;" parent="1" vertex="1">
          <mxGeometry x="590" y="342" width="48" height="48" as="geometry" />
        </mxCell>
        <mxCell id="I0Lb3Z7_06NX-Wviw64G-11" value="" style="shape=umlBoundary;whiteSpace=wrap;html=1;aspect=fixed;" parent="1" vertex="1">
          <mxGeometry x="200" y="240" width="60" height="48" as="geometry" />
        </mxCell>
        <mxCell id="I0Lb3Z7_06NX-Wviw64G-12" value="&lt;b&gt;Video Upload Page&lt;/b&gt;" style="text;html=1;align=center;verticalAlign=middle;resizable=0;points=[];autosize=1;strokeColor=none;fillColor=none;" parent="1" vertex="1">
          <mxGeometry x="175" y="288" width="130" height="30" as="geometry" />
        </mxCell>
        <mxCell id="I0Lb3Z7_06NX-Wviw64G-18" value="" style="shape=umlBoundary;whiteSpace=wrap;html=1;aspect=fixed;" parent="1" vertex="1">
          <mxGeometry x="200" y="360" width="60" height="48" as="geometry" />
        </mxCell>
        <mxCell id="I0Lb3Z7_06NX-Wviw64G-20" value="&lt;b&gt;Analysis Results Page&lt;/b&gt;" style="text;html=1;align=center;verticalAlign=middle;resizable=0;points=[];autosize=1;strokeColor=none;fillColor=none;" parent="1" vertex="1">
          <mxGeometry x="165" y="408" width="150" height="30" as="geometry" />
        </mxCell>
        <mxCell id="I0Lb3Z7_06NX-Wviw64G-21" value="" style="shape=umlBoundary;whiteSpace=wrap;html=1;aspect=fixed;" parent="1" vertex="1">
          <mxGeometry x="200" y="526" width="60" height="48" as="geometry" />
        </mxCell>
        <mxCell id="I0Lb3Z7_06NX-Wviw64G-22" value="&lt;b&gt;Historical Results&amp;nbsp;Page&lt;/b&gt;" style="text;html=1;align=center;verticalAlign=middle;resizable=0;points=[];autosize=1;strokeColor=none;fillColor=none;" parent="1" vertex="1">
          <mxGeometry x="160" y="569" width="160" height="30" as="geometry" />
        </mxCell>
        <mxCell id="I0Lb3Z7_06NX-Wviw64G-33" value="" style="endArrow=none;html=1;rounded=0;entryX=0.001;entryY=0.472;entryDx=0;entryDy=0;entryPerimeter=0;" parent="1" target="I0Lb3Z7_06NX-Wviw64G-12" edge="1">
          <mxGeometry width="50" height="50" relative="1" as="geometry">
            <mxPoint x="100" y="340" as="sourcePoint" />
            <mxPoint x="380" y="380" as="targetPoint" />
          </mxGeometry>
        </mxCell>
        <mxCell id="I0Lb3Z7_06NX-Wviw64G-34" value="" style="endArrow=none;html=1;rounded=0;entryX=-0.018;entryY=-0.111;entryDx=0;entryDy=0;entryPerimeter=0;" parent="1" target="I0Lb3Z7_06NX-Wviw64G-20" edge="1">
          <mxGeometry width="50" height="50" relative="1" as="geometry">
            <mxPoint x="100" y="360" as="sourcePoint" />
            <mxPoint x="185" y="312" as="targetPoint" />
          </mxGeometry>
        </mxCell>
        <mxCell id="I0Lb3Z7_06NX-Wviw64G-35" value="" style="endArrow=none;html=1;rounded=0;entryX=-0.009;entryY=0.003;entryDx=0;entryDy=0;entryPerimeter=0;" parent="1" target="I0Lb3Z7_06NX-Wviw64G-22" edge="1">
          <mxGeometry width="50" height="50" relative="1" as="geometry">
            <mxPoint x="100" y="380" as="sourcePoint" />
            <mxPoint x="172" y="415" as="targetPoint" />
          </mxGeometry>
        </mxCell>
        <mxCell id="I0Lb3Z7_06NX-Wviw64G-36" value="" style="ellipse;shape=umlControl;whiteSpace=wrap;html=1;aspect=fixed;" parent="1" vertex="1">
          <mxGeometry x="400" y="300" width="42" height="48" as="geometry" />
        </mxCell>
        <mxCell id="I0Lb3Z7_06NX-Wviw64G-37" value="&lt;b&gt;Data Upload Application&amp;nbsp;&lt;/b&gt;" style="text;html=1;align=center;verticalAlign=middle;resizable=0;points=[];autosize=1;strokeColor=none;fillColor=none;" parent="1" vertex="1">
          <mxGeometry x="336" y="345" width="170" height="30" as="geometry" />
        </mxCell>
        <mxCell id="I0Lb3Z7_06NX-Wviw64G-38" value="" style="endArrow=open;html=1;rounded=0;endFill=0;" parent="1" edge="1">
          <mxGeometry width="50" height="50" relative="1" as="geometry">
            <mxPoint x="280" y="280" as="sourcePoint" />
            <mxPoint x="370" y="310" as="targetPoint" />
          </mxGeometry>
        </mxCell>
        <mxCell id="I0Lb3Z7_06NX-Wviw64G-40" value="&lt;b&gt;Fitness Action Video&lt;/b&gt;" style="text;html=1;align=center;verticalAlign=middle;resizable=0;points=[];autosize=1;strokeColor=none;fillColor=none;" parent="1" vertex="1">
          <mxGeometry x="544" y="390" width="140" height="30" as="geometry" />
        </mxCell>
        <mxCell id="I0Lb3Z7_06NX-Wviw64G-41" value="" style="endArrow=open;html=1;rounded=0;endFill=0;" parent="1" edge="1">
          <mxGeometry width="50" height="50" relative="1" as="geometry">
            <mxPoint x="470" y="330" as="sourcePoint" />
            <mxPoint x="560" y="360" as="targetPoint" />
          </mxGeometry>
        </mxCell>
        <mxCell id="I0Lb3Z7_06NX-Wviw64G-44" value="" style="endArrow=open;html=1;rounded=0;endFill=0;" parent="1" edge="1">
          <mxGeometry width="50" height="50" relative="1" as="geometry">
            <mxPoint x="660" y="369" as="sourcePoint" />
            <mxPoint x="800" y="310" as="targetPoint" />
          </mxGeometry>
        </mxCell>
        <mxCell id="I0Lb3Z7_06NX-Wviw64G-45" value="" style="ellipse;shape=umlControl;whiteSpace=wrap;html=1;aspect=fixed;" parent="1" vertex="1">
          <mxGeometry x="844" y="270" width="42" height="48" as="geometry" />
        </mxCell>
        <mxCell id="I0Lb3Z7_06NX-Wviw64G-46" value="&lt;b&gt;Video Review Application&lt;/b&gt;" style="text;html=1;align=center;verticalAlign=middle;resizable=0;points=[];autosize=1;strokeColor=none;fillColor=none;" parent="1" vertex="1">
          <mxGeometry x="780" y="315" width="170" height="30" as="geometry" />
        </mxCell>
        <mxCell id="I0Lb3Z7_06NX-Wviw64G-49" value="" style="ellipse;shape=umlControl;whiteSpace=wrap;html=1;aspect=fixed;" parent="1" vertex="1">
          <mxGeometry x="844" y="438" width="42" height="48" as="geometry" />
        </mxCell>
        <mxCell id="I0Lb3Z7_06NX-Wviw64G-50" value="&lt;b&gt;Delete Video Application&lt;/b&gt;" style="text;html=1;align=center;verticalAlign=middle;resizable=0;points=[];autosize=1;strokeColor=none;fillColor=none;" parent="1" vertex="1">
          <mxGeometry x="785" y="486" width="160" height="30" as="geometry" />
        </mxCell>
        <mxCell id="I0Lb3Z7_06NX-Wviw64G-51" value="" style="endArrow=open;html=1;rounded=0;exitX=0.45;exitY=1.167;exitDx=0;exitDy=0;exitPerimeter=0;endFill=0;" parent="1" source="I0Lb3Z7_06NX-Wviw64G-46" edge="1">
          <mxGeometry width="50" height="50" relative="1" as="geometry">
            <mxPoint x="945" y="420" as="sourcePoint" />
            <mxPoint x="860" y="430" as="targetPoint" />
          </mxGeometry>
        </mxCell>
        <mxCell id="I0Lb3Z7_06NX-Wviw64G-52" value="" style="endArrow=open;html=1;rounded=0;entryX=1.008;entryY=1.128;entryDx=0;entryDy=0;entryPerimeter=0;endFill=0;" parent="1" target="I0Lb3Z7_06NX-Wviw64G-40" edge="1">
          <mxGeometry width="50" height="50" relative="1" as="geometry">
            <mxPoint x="800" y="460" as="sourcePoint" />
            <mxPoint x="870" y="440" as="targetPoint" />
          </mxGeometry>
        </mxCell>
        <mxCell id="I0Lb3Z7_06NX-Wviw64G-53" value="" style="ellipse;shape=umlControl;whiteSpace=wrap;html=1;aspect=fixed;" parent="1" vertex="1">
          <mxGeometry x="1045" y="516" width="42" height="48" as="geometry" />
        </mxCell>
        <mxCell id="I0Lb3Z7_06NX-Wviw64G-54" value="&lt;b&gt;Qwen_VL Call Application&lt;/b&gt;" style="text;html=1;align=center;verticalAlign=middle;resizable=0;points=[];autosize=1;strokeColor=none;fillColor=none;" parent="1" vertex="1">
          <mxGeometry x="980" y="569" width="170" height="30" as="geometry" />
        </mxCell>
        <mxCell id="I0Lb3Z7_06NX-Wviw64G-55" value="" style="endArrow=open;html=1;rounded=0;exitX=0.852;exitY=1.1;exitDx=0;exitDy=0;exitPerimeter=0;endFill=0;" parent="1" source="I0Lb3Z7_06NX-Wviw64G-46" edge="1">
          <mxGeometry width="50" height="50" relative="1" as="geometry">
            <mxPoint x="915" y="345" as="sourcePoint" />
            <mxPoint x="1030" y="510" as="targetPoint" />
          </mxGeometry>
        </mxCell>
        <mxCell id="I0Lb3Z7_06NX-Wviw64G-56" value="" style="ellipse;shape=umlEntity;whiteSpace=wrap;html=1;aspect=fixed;" parent="1" vertex="1">
          <mxGeometry x="590" y="525" width="48" height="48" as="geometry" />
        </mxCell>
        <mxCell id="I0Lb3Z7_06NX-Wviw64G-57" value="&lt;b&gt;Analysis Results&lt;/b&gt;" style="text;html=1;align=center;verticalAlign=middle;resizable=0;points=[];autosize=1;strokeColor=none;fillColor=none;" parent="1" vertex="1">
          <mxGeometry x="554" y="573" width="120" height="30" as="geometry" />
        </mxCell>
        <mxCell id="I0Lb3Z7_06NX-Wviw64G-58" value="" style="endArrow=open;html=1;rounded=0;endFill=0;" parent="1" edge="1">
          <mxGeometry width="50" height="50" relative="1" as="geometry">
            <mxPoint x="980" y="560" as="sourcePoint" />
            <mxPoint x="680" y="560" as="targetPoint" />
          </mxGeometry>
        </mxCell>
        <mxCell id="I0Lb3Z7_06NX-Wviw64G-59" value="" style="endArrow=open;html=1;rounded=0;entryX=0.964;entryY=0.983;entryDx=0;entryDy=0;entryPerimeter=0;endFill=0;" parent="1" target="I0Lb3Z7_06NX-Wviw64G-61" edge="1">
          <mxGeometry width="50" height="50" relative="1" as="geometry">
            <mxPoint x="570" y="540" as="sourcePoint" />
            <mxPoint x="510" y="500" as="targetPoint" />
          </mxGeometry>
        </mxCell>
        <mxCell id="I0Lb3Z7_06NX-Wviw64G-60" value="" style="ellipse;shape=umlControl;whiteSpace=wrap;html=1;aspect=fixed;" parent="1" vertex="1">
          <mxGeometry x="400" y="411" width="42" height="48" as="geometry" />
        </mxCell>
        <mxCell id="I0Lb3Z7_06NX-Wviw64G-61" value="&lt;b&gt;Send Result Application&amp;nbsp;&lt;/b&gt;" style="text;html=1;align=center;verticalAlign=middle;resizable=0;points=[];autosize=1;strokeColor=none;fillColor=none;" parent="1" vertex="1">
          <mxGeometry x="341" y="456" width="160" height="30" as="geometry" />
        </mxCell>
        <mxCell id="I0Lb3Z7_06NX-Wviw64G-62" value="" style="endArrow=open;html=1;rounded=0;entryX=0.964;entryY=0.983;entryDx=0;entryDy=0;entryPerimeter=0;endFill=0;" parent="1" edge="1">
          <mxGeometry width="50" height="50" relative="1" as="geometry">
            <mxPoint x="360" y="430" as="sourcePoint" />
            <mxPoint x="280" y="395.5" as="targetPoint" />
          </mxGeometry>
        </mxCell>
        <mxCell id="I0Lb3Z7_06NX-Wviw64G-63" value="" style="ellipse;shape=umlControl;whiteSpace=wrap;html=1;aspect=fixed;" parent="1" vertex="1">
          <mxGeometry x="400" y="603" width="42" height="48" as="geometry" />
        </mxCell>
        <mxCell id="I0Lb3Z7_06NX-Wviw64G-64" value="&lt;b&gt;Request History&amp;nbsp;Application&amp;nbsp;&lt;/b&gt;" style="text;html=1;align=center;verticalAlign=middle;resizable=0;points=[];autosize=1;strokeColor=none;fillColor=none;" parent="1" vertex="1">
          <mxGeometry x="326" y="648" width="190" height="30" as="geometry" />
        </mxCell>
        <mxCell id="I0Lb3Z7_06NX-Wviw64G-65" value="" style="ellipse;shape=umlEntity;whiteSpace=wrap;html=1;aspect=fixed;" parent="1" vertex="1">
          <mxGeometry x="590" y="670" width="48" height="48" as="geometry" />
        </mxCell>
        <mxCell id="I0Lb3Z7_06NX-Wviw64G-66" value="&lt;b&gt;History Results&lt;/b&gt;" style="text;html=1;align=center;verticalAlign=middle;resizable=0;points=[];autosize=1;strokeColor=none;fillColor=none;" parent="1" vertex="1">
          <mxGeometry x="559" y="718" width="110" height="30" as="geometry" />
        </mxCell>
        <mxCell id="I0Lb3Z7_06NX-Wviw64G-67" value="" style="endArrow=open;html=1;rounded=0;entryX=1.012;entryY=0.682;entryDx=0;entryDy=0;entryPerimeter=0;endFill=0;" parent="1" target="I0Lb3Z7_06NX-Wviw64G-64" edge="1">
          <mxGeometry width="50" height="50" relative="1" as="geometry">
            <mxPoint x="575" y="705" as="sourcePoint" />
            <mxPoint x="500" y="650" as="targetPoint" />
          </mxGeometry>
        </mxCell>
        <mxCell id="I0Lb3Z7_06NX-Wviw64G-68" value="" style="endArrow=open;html=1;rounded=0;endFill=0;" parent="1" edge="1">
          <mxGeometry width="50" height="50" relative="1" as="geometry">
            <mxPoint x="280" y="555" as="sourcePoint" />
            <mxPoint x="370" y="610" as="targetPoint" />
          </mxGeometry>
        </mxCell>
        <mxCell id="I0Lb3Z7_06NX-Wviw64G-69" value="" style="endArrow=open;html=1;rounded=0;entryX=0.476;entryY=1.141;entryDx=0;entryDy=0;entryPerimeter=0;endFill=0;" parent="1" target="I0Lb3Z7_06NX-Wviw64G-61" edge="1">
          <mxGeometry width="50" height="50" relative="1" as="geometry">
            <mxPoint x="420" y="599" as="sourcePoint" />
            <mxPoint x="470" y="549" as="targetPoint" />
          </mxGeometry>
        </mxCell>
        <mxCell id="I0Lb3Z7_06NX-Wviw64G-71" value="" style="endArrow=open;html=1;rounded=0;entryX=0.964;entryY=0.983;entryDx=0;entryDy=0;entryPerimeter=0;endFill=0;" parent="1" edge="1">
          <mxGeometry width="50" height="50" relative="1" as="geometry">
            <mxPoint x="360" y="440" as="sourcePoint" />
            <mxPoint x="266" y="518" as="targetPoint" />
          </mxGeometry>
        </mxCell>
      </root>
    </mxGraphModel>
  </diagram>
</mxfile>
